<svg xmlns="http://www.w3.org/2000/svg" xmlns:svg="http://www.w3.org/2000/svg" id="svg1" width="572.635" height="424.641" version="1.1" viewBox="0 0 429.477 318.481"><path id="shape0" fill="#fff" fill-rule="evenodd" stroke="none" stroke-linecap="square" stroke-linejoin="bevel" stroke-width="10" d="M 157.17499,169.9509 162.40999,82 C 40.081092,102.0682 -13.143108,153.2856 2.7368919,235.652 c 9.5161001,49.358 48.8173001,77.006 91.5407001,81.811 64.219398,7.223 137.159398,-26.284 136.189398,-28.412 -1.077,-2.362 -10.675,-38.834 -28.793,-109.415 l -69.89,19.108 10.209,38.217 c -27.747,20.417 -47.553298,21.203 -59.419698,2.356 -11.8664,-18.847 -3.7519,-41.096 24.343698,-66.7485 14.833,-13.2624 31.585,-14.135 50.258,-2.6176 z" style="fill:#fff"/><path id="shape1" fill="#fff" fill-rule="evenodd" stroke="none" stroke-linecap="square" stroke-linejoin="bevel" stroke-width="10" d="M 356.17499,87.9509 361.40999,3.4764829e-7 C 239.08109,20.0682 185.85689,71.2856 201.73689,153.652 c 9.5161,49.358 48.8173,77.006 91.5407,81.811 64.2194,7.223 137.1594,-26.284 136.1894,-28.412 -1.077,-2.362 -10.675,-38.834 -28.793,-109.415 l -69.89,19.108 10.209,38.217 c -27.747,20.417 -47.5533,21.203 -59.4197,2.356 -11.8664,-18.847 -3.7519,-41.096 24.3437,-66.7485 14.833,-13.2624 31.585,-14.135 50.258,-2.6176 z" style="fill:#fff"/></svg>